<svg width="1024" height="1024" viewBox="0 0 1024 1024" fill="none" xmlns="http://www.w3.org/2000/svg">
<path d="M687.097 178C693.135 178 696.157 178.001 698.693 178.326C700.577 178.568 702.421 178.94 704.211 179.432C707.315 179.961 710.325 181.16 713.013 183.025C719.143 186.43 724.275 191.394 727.883 197.391L874.815 344.32C883.407 352.912 883.407 366.842 874.815 375.434L797.033 453.214C788.441 461.806 774.513 461.806 765.921 453.214L733.599 420.892V782C733.599 804.402 733.599 815.604 729.239 824.16C725.405 831.686 719.285 837.806 711.759 841.64C703.203 846 692.001 846 669.599 846H355.599C333.197 846 321.997 846 313.441 841.64C305.915 837.806 299.795 831.686 295.959 824.16C291.601 815.604 291.599 804.402 291.599 782V419.696L258.079 453.214C249.487 461.806 235.559 461.806 226.967 453.214L149.185 375.434C140.593 366.842 140.593 352.912 149.185 344.32L299.897 193.607C302.009 190.866 304.467 188.407 307.207 186.297L307.951 185.557C311.863 181.643 316.883 179.517 322.003 179.168C323.161 178.882 324.341 178.646 325.539 178.463C328.551 178.001 332.149 178 339.347 178C344.567 178 347.177 178 348.939 178.156C360.783 179.205 366.683 182.099 374.761 190.824C375.961 192.122 378.583 195.509 383.823 202.282C413.819 241.042 460.793 266 513.599 266C566.675 266 613.863 240.786 643.837 201.684C648.539 195.55 650.889 192.482 651.881 191.369C660.115 182.142 666.419 179.032 678.751 178.111C680.237 178 682.525 178 687.097 178Z" fill="white"/>
</svg>
